<?xml version="1.0" encoding="UTF-8" standalone="no"?><!DOCTYPE svg PUBLIC "-//W3C//DTD SVG 1.1//EN" "http://www.w3.org/Graphics/SVG/1.1/DTD/svg11.dtd"><svg width="100%" height="100%" viewBox="0 0 2400 2134" version="1.1" xmlns="http://www.w3.org/2000/svg" xmlns:xlink="http://www.w3.org/1999/xlink" xml:space="preserve" xmlns:serif="http://www.serif.com/" style="fill-rule:evenodd;clip-rule:evenodd;stroke-linejoin:round;stroke-miterlimit:2;"><path d="M1666.67,0l-933.334,0c-110.416,0 -200.416,90.833 -196.25,200.833c0.834,22.084 1.667,44.167 2.917,65.834c-0,-0 196.667,1206.25 362.5,1252.08c97.5,27.083 164.167,108.333 164.167,190c-0,87.083 -70.834,157.917 -157.917,157.917l-108.75,-0c-73.75,-0 -133.333,59.583 -133.333,133.333c-0,73.75 59.583,133.333 133.333,133.333l800,0c73.75,0 133.333,-59.583 133.333,-133.333c0,-73.75 -59.583,-133.333 -133.333,-133.333l-108.75,-0c-87.083,-0 -157.917,-70.834 -157.917,-157.917c0,-81.667 66.25,-163.333 164.167,-190c166.25,-45.833 362.5,-1252.08 362.5,-1252.08c1.25,-21.667 2.083,-43.334 2.917,-65.834c4.166,-110 -85.834,-200.833 -196.25,-200.833Z" style="fill:#444;fill-rule:nonzero;"/></svg>